# xmcd
#
# Track frame offsets: 
#        150
#        31964
#        57449
#        87078
#        120271
#        158507
#        186342
#        218507
#        246855
#        273421
#        305025
#        335933
#
# Disc length: 4763 seconds
#
# Revision: 0
# Processed by: cddbd v1.5.2PL0 Copyright (c) Steve Scherf et al.
# Submitted via: ExactAudioCopyFreeDBPlugin 1.0
#
DISCID=a512990c
DTITLE=John Mayall - Historic Live Shows 2
DYEAR=2012
DGENRE=Blues
TTITLE0=Whiskey Headed Woman
TTITLE1=Congo Square
TTITLE2=The Last Time
TTITLE3=The Movin' Groovin' Blues
TTITLE4=I Looked At The Clock
TTITLE5=Nature's Disappearing
TTITLE6=Undercover Agent For The Blues
TTITLE7=Hungry And Ready
TTITLE8=What Passes For Love
TTITLE9=I Could Cry
TTITLE10=Double Life Feelings
TTITLE11=Voodoo Music
EXTD=
EXTT0=
EXTT1=
EXTT2=
EXTT3=
EXTT4=
EXTT5=
EXTT6=
EXTT7=
EXTT8=
EXTT9=
EXTT10=
EXTT11=
PLAYORDER=
